<svg version="1.1" xmlns:x="http://ns.adobe.com/Extensibility/1.0/" xmlns:i="http://ns.adobe.com/AdobeIllustrator/10.0/" xmlns:graph="http://ns.adobe.com/Graphs/1.0/" xmlns="http://www.w3.org/2000/svg" xmlns:xlink="http://www.w3.org/1999/xlink" x="0px" y="0px" width="750px" height="750px" viewBox="0 0 750 750" enable-background="new 0 0 750 750" xml:space="preserve">
<metadata>
	<sfw xmlns="http://ns.adobe.com/SaveForWeb/1.0/">
		<slices/>
		<sliceSourceBounds bottomLeftOrigin="true" height="12496.359" width="14430.097" x="-7224.097" y="-4175"/>
	</sfw>
</metadata>
<g id="N-DIMENSIONS">
</g>
<g id="N-TEXT">
</g>
<g id="AG-DIAGRAM">
	<g>
		<g>
			
				<line fill="none" stroke="#FB8604" stroke-width="3.5" stroke-linecap="round" stroke-linejoin="round" x1="85.876" y1="575.361" x2="87.876" y2="575.361"/>
			
				<line fill="none" stroke="#FB8604" stroke-width="3.5" stroke-linecap="round" stroke-linejoin="round" stroke-dasharray="3.9561,6.9232" x1="94.799" y1="575.361" x2="559.148" y2="575.361"/>
			
				<line fill="none" stroke="#FB8604" stroke-width="3.5" stroke-linecap="round" stroke-linejoin="round" x1="562.609" y1="575.361" x2="564.609" y2="575.361"/>
		</g>
	</g>
</g>
<g id="AG-GUIDES">
</g>
<g id="AG-PEOPLE">
</g>
<g id="AG-DETAIL">
	<g id="POLYLINE_1499_">
		<path fill="none" stroke="#FB8604" stroke-width="2" stroke-linecap="round" stroke-linejoin="round" stroke-miterlimit="10" d="    M577.636,377.989c-3.288-3.068-6.417-6.294-8.912-10.054c-2.564-3.864-4.341-8.159-5.654-12.594    c-1.314-4.438-2.207-9.001-2.804-13.589c-0.636-4.888-1.098-9.925-0.673-14.85c0.382-4.416,1.693-8.819,4.967-11.966    c3.557-3.42,8.518-5.235,13.26-6.257c8.984-1.936,18.409,0.567,26.993-3.315c4.014-1.816,7.753-4.425,10.867-7.538    c3.685-3.684,5.88-8.061,6.446-13.254c0.115-1.055,0.178-2.114,0.238-3.173"/>
	</g>
	<g id="POLYLINE_1497_">
		<path fill="none" stroke="#FB8604" stroke-width="2" stroke-linecap="round" stroke-linejoin="round" stroke-miterlimit="10" d="    M525.36,453.407c2.185-1.934,4.393-4.047,7.202-5.03c2.276-0.796,4.574-0.566,6.867,0.022c3.927,1.006,11.037,5.076,13.728,0.045    c1.214-2.27,1.627-4.981,2.199-7.461c0.627-2.717,1.321-5.416,2.605-7.908c2.73-5.302,7.358-9.161,11.093-13.703    c3.441-4.184,5.815-9.055,8.125-13.919c0.337-0.71,0.674-1.42,1.011-2.13"/>
	</g>
	<g id="POLYLINE_1477_">
		<path fill="none" stroke="#FB8604" stroke-width="2" stroke-linecap="round" stroke-linejoin="round" stroke-miterlimit="10" d="    M432.816,494.207c4.236-0.453,8.773-0.952,12.684,1.142c4.48,2.399,7.352,7.41,9.943,11.587    c3.114,5.02,6.127,10.124,10.295,14.365c3.831,3.898,8.436,6.895,13.578,8.755c5.222,1.89,10.848,2.698,16.392,2.522    c0.672-0.021,1.343-0.061,2.013-0.109"/>
	</g>
	<g id="POLYLINE_1476_">
		<path fill="none" stroke="#FB8604" stroke-width="2" stroke-linecap="round" stroke-linejoin="round" stroke-miterlimit="10" d="    M162.029,563.378c4.858-0.746,9.708-2.807,13.746-5.602c4.95-3.426,6.799-8.408,7.789-14.115    c0.875-5.042,1.242-10.368,3.175-15.157c1.774-4.395,5.1-7.735,9.388-9.72c4.488-2.078,9.465-2.744,14.303-3.511    c5.22-0.827,10.51-1.487,15.605-2.941c4.593-1.311,8.679-3.387,12.221-6.614c3.593-3.274,6.478-7.237,10.064-10.516    c7.051-6.448,16.769-7.124,25.858-6.153c1.224,0.131,2.442,0.3,3.659,0.486"/>
	</g>
</g>
<g id="AG-ANIMALS">
	<g id="POLYLINE_1459_">
		
			<path fill="none" stroke="#FB8604" stroke-width="2.75" stroke-linecap="round" stroke-linejoin="round" stroke-miterlimit="10" d="    M499.29,521.302c8.466-6.009,16.852-12.144,25.628-17.699c8.467-5.36,17.503-9.799,25.829-15.38    c7.878-5.282,14.231-11.965,16.43-21.433c2.196-9.454,1.526-19.328,3.432-28.84c1.933-9.645,5.889-18.756,7.111-28.566    c1.244-9.992,0.185-20.185-0.06-30.204c-0.219-8.909,0.062-18.189,3.919-26.397c1.882-4.005,4.6-7.701,8.221-10.296    c3.299-2.364,7.194-3.636,11.083-4.648c4.987-1.298,9.954-2.506,14.544-4.93c4.031-2.129,7.565-5.03,10.656-8.365    c2.862-3.089,5.402-6.507,7.467-10.179c2.412-4.29,4.057-8.953,5.88-13.509c0.786-1.963,1.756-3.827,2.761-5.686"/>
	</g>
	<g id="POLYLINE_1457_">
		
			<path fill="none" stroke="#FB8604" stroke-width="2.75" stroke-linecap="round" stroke-linejoin="round" stroke-miterlimit="10" d="    M633.591,282.25c-7.11-0.9-14.222-0.983-21.375-0.745c-6.251,0.208-12.5,0.678-18.379-1.867c-2.479-1.073-4.773-2.529-6.837-4.269    c-2.512-2.118-4.729-4.578-7.417-6.486c-5.147-3.655-11.742-4.613-17.901-4.959c-6.492-0.365-12.873,0.178-19.019,2.406    c-0.825,0.299-1.638,0.625-2.448,0.96"/>
	</g>
	<g id="POLYLINE_1454_">
		
			<path fill="none" stroke="#FB8604" stroke-width="2.75" stroke-linecap="round" stroke-linejoin="round" stroke-miterlimit="10" d="    M634.927,299.65c-3.428-0.517-5.408-5.167-6.504-8.023c-1.28-3.335-1.008-6.635,2.432-8.496c2.76-1.494,5.98-0.999,8.729,0.257    c1.865,0.852,3.527,2.027,4.1,4.093c0.407,1.468,0.314,3.069-0.069,4.531C642.697,295.507,638.988,300.132,634.927,299.65z"/>
	</g>
	<g id="POLYLINE_1453_">
		
			<path fill="none" stroke="#FB8604" stroke-width="2.75" stroke-linecap="round" stroke-linejoin="round" stroke-miterlimit="10" d="    M520.221,279.479c-7.018-0.881-14.041-1.668-20.995-2.976c-6.685-1.257-13.747-3.067-20.588-2.147    c-6.041,0.813-12.723,4.617-13.304,11.302c-0.331,3.803,1.827,7.213,4.151,10.03c2.14,2.594,4.607,4.931,7.117,7.161    c4.607,4.095,9.629,7.816,15.163,10.565c0.661,0.328,1.331,0.637,2.003,0.94"/>
	</g>
	<g id="POLYLINE_1452_">
		
			<path fill="none" stroke="#FB8604" stroke-width="2.75" stroke-linecap="round" stroke-linejoin="round" stroke-miterlimit="10" d="    M524.066,276.56c-3.882,2.816-7.701,5.857-10.833,9.513c-3.348,3.908-5.221,8.64-7.821,13.02    c-2.71,4.563-6.138,8.696-9.532,12.758c-3.545,4.243-7.18,8.41-10.713,12.664c-6.501,7.828-12.494,16.543-21.424,21.824    c-8.79,5.198-19.121,7.404-29.018,9.405c-11.35,2.294-22.786,4.002-34.233,5.725c-4.516,0.68-9.151,1.432-13.431,3.082    c-2.429,0.936-4.738,2.194-7.272,2.843c-2.442,0.626-4.974,0.623-7.474,0.472c-5.338-0.322-10.631-1.234-15.944-1.808    c-5.164-0.558-10.331-0.852-15.526-0.821c-11.672,0.07-23.344,1.218-34.98,2.019c-9.727,0.669-19.501,0.512-29.218-0.25    c-11.261-0.882-22.545-2.273-33.857-2.2c-10.122,0.065-20.123,1.515-29.635,5.054c-9.842,3.663-19.049,9.082-27.259,15.609    c-8.16,6.487-15.314,14.167-21.069,22.867c-5.767,8.719-10.081,18.339-13.245,28.287c-3.216,10.111-5.331,20.532-6.86,31.022    c-1.638,11.243-2.95,22.538-5.051,33.708c-1.969,10.471-4.523,20.9-8.314,30.872c-3.591,9.447-8.438,18.434-14.444,26.568    c-1.536,2.08-3.162,4.081-4.854,6.036c-1.443,1.668-3.704,3.634-4.391,5.792c-1.268,3.981,10.596,2.913,12.622,2.832    c9.707-0.391,19.823-1.662,28.46-6.421c4.575-2.521,8.61-5.923,12.121-9.774"/>
	</g>
	<g id="POLYLINE_1451_">
		
			<path fill="none" stroke="#FB8604" stroke-width="2.75" stroke-linecap="round" stroke-linejoin="round" stroke-miterlimit="10" d="    M549.296,316.684c-3.035,3.003-6.664,4.722-11.009,4.171c-4.56-0.578-7.853-3.326-9.208-7.675    c-1.252-4.021-1.427-8.388-1.861-12.548c-0.498-4.775-1.113-9.531-1.739-14.291c-0.538-4.096-1.166-8.182-1.809-12.263    c-0.726-4.604-1.761-9.306-1.941-13.978c-0.059-1.533-0.129-3.606,0.963-4.822c1.522-1.696,4.418-0.522,6.093,0.289    c4.373,2.119,7.782,5.807,10.333,9.874c2.38,3.794,4.107,7.94,5.766,12.085c1.598,3.993,3.17,8.008,4.406,12.13    c0.277,0.925,0.534,1.855,0.783,2.787"/>
	</g>
	<g id="POLYLINE_1450_">
		
			<path fill="none" stroke="#FB8604" stroke-width="2.75" stroke-linecap="round" stroke-linejoin="round" stroke-miterlimit="10" d="    M204.825,568.431c1.906,3.524,4.655,5.553,8.562,6.335c3.554,0.711,7.248,0.676,10.856,0.595c4.39-0.099,8.789-0.135,13.177-0.306    c3.505-0.137,7.389-0.248,10.622-1.768c4.195-1.971,4.347-6.72,3.577-10.744c-0.554-2.896-1.404-6.433-4.209-7.955    c-3.262-1.769-7.927-1.034-11.477-1.023c-3.224,0.01-6.553-0.276-8.056-3.564c-1.399-3.059-1.493-6.801-1.705-10.103    c-0.272-4.231-0.364-8.536-1.011-12.734c-0.125-0.814-0.284-1.623-0.489-2.421"/>
	</g>
	<g id="POLYLINE_1449_">
		
			<path fill="none" stroke="#FB8604" stroke-width="2.75" stroke-linecap="round" stroke-linejoin="round" stroke-miterlimit="10" d="    M193.954,530.895c1.193,6.826,2.407,13.663,4.251,20.349c0.488,1.771,1.034,3.523,1.628,5.261"/>
	</g>
	<g id="POLYLINE_1448_">
		
			<path fill="none" stroke="#FB8604" stroke-width="2.75" stroke-linecap="round" stroke-linejoin="round" stroke-miterlimit="10" d="    M270.787,500.95c2.311,2.67,5.223,7.111,8.867,8.014c1.676,0.415,3.332-0.242,4.802-1.008c1.44-0.751,3.235-2.21,4.964-1.948    c1.645,0.249,2.657,2.149,3.387,3.456c0.958,1.715,1.738,3.527,2.73,5.223c0.751,1.284,1.815,3.056,3.508,3.04    c1.835-0.018,3.548-1.653,4.972-2.64c1.343-0.931,2.993-2.08,4.661-1.313c1.623,0.747,2.689,2.569,3.621,4.007    c1.882,2.903,4.032,7.342,7.85,7.984c3.811,0.641,4.792-4.625,5.785-7.251c0.563-1.491,1.41-3.468,3.134-1.983    c1.407,1.213,2.383,3.016,3.355,4.575c1.963,3.148,3.944,7.408,7.008,9.663c2.005,1.475,1.755-1.349,1.743-2.652    c-0.01-1.05-0.295-3.674,1.226-3.825c1.384-0.138,3.142,1.463,4.148,2.221c1.633,1.231,3.188,2.564,4.779,3.848    c1.299,1.048,2.742,2.418,4.334,3.004c1.876,0.691,1.796-1.866,3.41-2.216c1.517-0.329,3.387,0.491,4.775,1    c2.042,0.749,4.039,1.628,6.045,2.468c1.629,0.682,3.285,1.394,5.009,1.801c1.854,0.437,2.687,0.089,3.444-1.66    c1.386-3.205,6.296-1.171,8.768-0.432c3.912,1.17,7.784,2.551,11.782,3.412c3.038,0.654,6.1,0.839,9.137,0.071    c3.485-0.881,6.664-2.681,10.034-3.894c7.947-2.862,16.456-4.212,24.701-5.911c1.613-0.332,3.222-0.685,4.832-1.031"/>
	</g>
	<g id="POLYLINE_1447_">
		
			<path fill="none" stroke="#FB8604" stroke-width="2.75" stroke-linecap="round" stroke-linejoin="round" stroke-miterlimit="10" d="    M170.91,405.611c-3.189,7.219-5.998,14.587-8.885,21.93c-2.589,6.588-5.265,13.144-7.286,19.936    c-2.044,6.869-3.403,13.916-3.809,21.077c-0.396,6.973-0.049,13.994,0.834,20.919c0.909,7.134,2.344,14.298,4.831,21.061    c2.316,6.299,5.6,12.047,5.385,18.939c-0.219,7.057-1.804,13.966-1.629,21.057c0.159,6.486,0.958,13.909,4.264,19.647    c1.958,3.399,5.039,4.734,8.85,5.055c3.736,0.315,7.534,0.344,11.28,0.429c3.418,0.077,6.88,0.032,10.268-0.466    c3.032-0.446,6.598-1.257,8.526-3.859c3.588-4.843,0.94-13.438-4.763-15.229c-2.553-0.802-6.404-0.445-8.017-3.025    c-1.452-2.323-0.89-5.897-0.567-8.437c0.437-3.436,0.816-6.981,1.597-10.355c0.78-3.37,3.674-4.357,6.755-5.027    c6.959-1.514,14.147-1.67,21.117-3.169c7.308-1.573,13.809-5.045,20.4-8.436c6.228-3.205,12.884-5.143,19.305-7.879    c3.456-1.473,6.654-3.288,9.193-6.107c2.185-2.426,4.115-5.14,5.849-7.903c3.671-5.852,6.262-12.293,8.095-18.939    c1.932-7.005,3.167-14.257,3.438-21.524c0.257-6.912-0.596-13.761-2.589-20.387c-0.989-3.289-2.239-6.482-3.58-9.641"/>
	</g>
	<g id="POLYLINE_1446_">
		
			<path fill="none" stroke="#FB8604" stroke-width="2.75" stroke-linecap="round" stroke-linejoin="round" stroke-miterlimit="10" d="    M422.834,415.697c1.709,6.031,3.373,12.072,4.712,18.198c1.288,5.893,2.297,11.846,2.949,17.844    c0.624,5.747,0.924,11.525,1.138,17.3c0.245,6.597,0.337,13.21,0.751,19.799c0.188,2.982,0.397,5.981,0.918,8.927    c0.359,2.032,0.886,6.029,3.713,5.496c1.196-0.226,2.113-0.549,2.999,0.527c0.766,0.931,1.153,2.23,1.508,3.363    c0.96,3.063,1.592,6.232,2.37,9.344c1.327,5.305,3.289,10.332,6.24,14.955c3.205,5.021,7.33,9.311,11.136,13.865    c3.948,4.724,6.575,9.922,9.346,15.378c2.629,5.177,6.041,9.631,11.343,12.27c4.884,2.43,10.612,2.703,15.967,2.86    c5.469,0.16,11.152,0.069,16.495-1.227c2.526-0.613,5.818-1.627,6.734-4.373c1.002-3.006-0.759-6.642-1.897-9.377    c-1.054-2.532-2.409-5.276-5.039-6.473c-2.451-1.115-5.451-0.815-8.063-0.819c-2.318-0.004-5.071,0.052-6.939-1.541    c-2.045-1.744-2.528-4.733-2.66-7.269c-0.298-5.699,1.115-11.402,1.891-17.012c0.871-6.3,1.474-12.657,2.776-18.889    c1.133-5.426,3.089-10.474,5.494-15.455c2.751-5.698,5.289-11.332,7.3-17.338c1.801-5.379,3.349-11.041,6.323-15.922    c1.46-2.396,3.253-4.549,5.021-6.719"/>
	</g>
</g>
<g id="AG-OUTLINE">
	<g id="POLYLINE_740_">
		
			<path fill="none" stroke="#FB8604" stroke-width="3.5" stroke-linecap="round" stroke-linejoin="round" stroke-miterlimit="10" d="    M540.214,267.292c-2.443-4.326-5.58-8.268-9.881-10.875c-1.794-1.088-5.264-3.003-7.304-1.455    c-1.577,1.197-1.378,3.93-1.272,5.693c0.13,2.173,0.479,4.328,0.818,6.476c0.287,1.814,0.573,3.629,0.86,5.443    c0.133,0.843,0.266,1.687,0.4,2.53c0.046,0.289,0.335,1.13,0.225,1.423c-0.124,0.33-0.86,0.664-1.178,0.899    c-0.565,0.419-1.125,0.844-1.679,1.276c-0.312,0.243-0.686,0.689-1.057,0.769c-0.415,0.089-1.134-0.142-1.545-0.194    c-3.208-0.403-6.418-0.792-9.624-1.208c-5.187-0.674-10.297-1.693-15.439-2.634c-4.757-0.87-9.714-1.7-14.557-1.121    c-4.59,0.549-9.287,2.541-11.912,6.514c-3.197,4.84-1.429,9.98,1.9,14.221c3.093,3.941,6.949,7.362,10.825,10.512    c3.448,2.802,7.136,5.343,11.079,7.399c0.951,0.496,1.918,0.955,2.895,1.395c-3.105,3.669-6.274,7.292-9.309,11.019    c-3.406,4.183-6.702,8.489-10.392,12.431c-3.015,3.221-6.342,6.151-10.137,8.422c-3.873,2.318-8.1,4.008-12.391,5.376    c-9.624,3.068-19.704,4.824-29.64,6.542c-9.788,1.693-19.785,2.571-29.467,4.812c-2.108,0.488-4.184,1.09-6.185,1.919    c-2.241,0.928-4.418,2.041-6.793,2.6c-4.273,1.005-8.898,0.325-13.192-0.207c-10.056-1.245-19.928-2.25-30.078-1.943    c-10.405,0.314-20.782,1.351-31.17,1.988c-9.396,0.576-18.808,0.421-28.192-0.293c-10.298-0.784-20.585-2.009-30.919-2.199    c-9.501-0.174-19.053,0.696-28.169,3.486c-9.003,2.755-17.518,7.082-25.297,12.358c-7.79,5.283-14.914,11.572-20.974,18.782    c-6.406,7.621-11.537,16.224-15.48,25.355c-3.927,9.095-6.676,18.662-8.713,28.345c-2.195,10.432-3.465,21.039-4.944,31.589    c-1.324,9.439-2.884,18.831-5.102,28.106c-2.186,9.138-4.994,18.179-8.946,26.718c-3.973,8.585-9.016,16.831-15.157,24.044    c-1.568,1.842-3.329,3.604-4.687,5.614c-0.414,0.613-1.001,1.461-0.898,2.25c0.135,1.038,1.355,1.404,2.22,1.616    c4.505,1.103,9.706,0.475,14.278,0.168c8.917-0.599,18.059-2.249,25.843-6.861c4.119-2.441,7.778-5.6,10.997-9.132    c0.517,3.743,1.27,7.522,2.787,11.001c0.672,1.542,1.508,3.076,2.702,4.279c1.628,1.641,3.808,2.314,6.049,2.589    c4.046,0.496,8.245,0.445,12.314,0.534c3.704,0.082,7.474,0.041,11.132-0.6c3.912-0.685,7.927-2.252,8.938-6.497    c0.549,0.252,1.052,1.586,1.43,2.078c0.435,0.567,0.916,1.098,1.453,1.569c0.892,0.783,1.92,1.374,3.026,1.8    c2.408,0.928,5.054,1.18,7.611,1.305c6.021,0.294,12.115-0.058,18.138-0.229c4.276-0.121,11.106,0.092,14.076-3.676    c1.962-2.49,1.63-6.148,1.052-9.064c-0.415-2.096-0.96-4.408-2.286-6.134c-3.205-4.172-10.479-2.472-14.995-2.68    c-2.283-0.105-4.581-0.551-5.918-2.598c-1.347-2.064-1.619-4.815-1.886-7.204c-0.636-5.699-0.438-11.516-1.435-17.172    c-0.065-0.369-0.469-1.35-0.357-1.687c0.102-0.305,1.099-0.515,1.482-0.654c1.172-0.424,2.328-0.891,3.47-1.389    c2.732-1.191,5.368-2.577,8.017-3.938c5.186-2.664,10.404-4.888,15.878-6.889c5.339-1.951,10.912-3.865,14.856-8.164    c0.844-0.92,1.613-1.903,2.379-2.889c2.163,2.499,4.323,5.511,7.186,7.268c3.242,1.989,5.984-0.15,8.927-1.586    c1.343-0.655,2.651-0.98,3.879,0.052c1.17,0.983,1.912,2.518,2.599,3.853c1.058,2.053,2.714,7.121,5.585,7.189    c3.33,0.079,5.318-4.358,8.655-4.222c2.979,0.121,4.937,4.729,6.321,6.843c1.489,2.273,3.941,5.72,7.099,5.467    c3.127-0.251,3.955-4.77,4.835-7.136c0.391-1.052,1.055-3.284,2.566-2.598c1.441,0.654,2.455,2.63,3.271,3.897    c1.827,2.837,3.454,5.818,5.546,8.476c0.558,0.709,2.265,3.208,3.384,2.789c1.003-0.375,0.516-3.33,0.532-4.129    c0.021-1.092,0.026-2.949,1.546-2.79c1.309,0.137,2.663,1.319,3.67,2.07c2.673,1.993,5.09,4.354,7.878,6.191    c0.536,0.353,1.212,0.854,1.872,0.931c0.848,0.1,1.093-0.531,1.487-1.158c0.811-1.289,1.836-1.383,3.252-1.104    c3.386,0.668,6.629,2.392,9.798,3.692c2.044,0.839,6.266,3.149,7.505,0.238c0.604-1.42,1.18-2.137,2.815-2.128    c1.542,0.008,3.096,0.432,4.574,0.831c3.457,0.935,6.837,2.139,10.29,3.092c2.771,0.765,5.63,1.444,8.524,1.35    c2.816-0.091,5.439-0.981,8.01-2.073c6.325-2.686,12.682-4.567,19.407-5.994c3.861-0.82,7.735-1.585,11.599-2.39    c0.545-0.114,1.09-0.231,1.634-0.349c0.621-0.134,1.243-0.268,1.864-0.401c0.609-0.131,0.515-0.208,0.868,0.179    c0.49,0.538,0.794,1.516,1.16,2.155c0.394,0.687,0.805,1.364,1.231,2.031c3.791,5.925,8.897,10.782,13.136,16.359    c4.227,5.562,6.296,12.318,10.317,17.975c3.834,5.394,9.6,8.463,16.071,9.375c6.522,0.919,13.377,0.963,19.919,0.22    c3.058-0.347,6.456-0.837,9.143-2.432c3.618-2.148,2.77-6.169,1.536-9.534c-1.107-3.021-2.338-6.721-5.16-8.581    c-2.597-1.711-6.146-1.307-9.095-1.315c-2.898-0.008-6.146-0.104-7.895-2.799c-1.726-2.66-1.728-6.29-1.549-9.338    c0.2-3.429,0.811-6.826,1.336-10.216c0.236-1.527,0.477-3.051,0.677-4.583c0.168-1.284,0.337-2.568,0.505-3.853    c0.056-0.429,0.02-1.143,0.246-1.502c0.227-0.362,0.998-0.709,1.338-0.95c0.851-0.604,1.703-1.209,2.554-1.813    c2.207-1.567,4.414-3.133,6.621-4.7c2.614-1.855,5.226-3.707,7.884-5.5c5.722-3.861,11.584-7.469,17.573-10.898    c6.452-3.694,13.106-7.217,19.029-11.745c5.223-3.994,9.562-8.981,11.782-15.245c2.368-6.679,2.488-14.026,3.044-21.016    c0.497-6.25,1.41-12.343,3.161-18.373c2.06-7.093,4.424-14.114,5.368-21.469c0.837-6.526,0.571-13.134,0.331-19.69    c-0.265-7.244-0.713-14.533-0.164-21.774c0.436-5.752,1.665-11.484,4.368-16.621c2.993-5.687,7.604-9.878,13.635-12.102    c6.402-2.361,13.203-3.158,19.326-6.336c5.673-2.943,10.361-7.413,14.231-12.452c3.803-4.953,6.331-10.439,8.616-16.214    c1.312-3.316,2.621-6.547,4.426-9.631c1.293-2.21,1.965-5.078,1.12-7.572c-0.952-2.812-4.268-4.212-6.971-4.758    c-1.149-0.232-2.258-0.115-3.404-0.2c-1.787-0.132-3.566-0.409-5.356-0.54c-7.089-0.52-14.141-0.136-21.233,0.024    c-5.692,0.128-11.016-0.705-15.955-3.681c-5.368-3.234-9-8.707-14.834-11.244c-5.561-2.418-11.949-2.92-17.943-2.955    C551.746,263.771,545.89,264.941,540.214,267.292z"/>
	</g>
</g>
<script xmlns=""/></svg>
