<?xml version="1.0" encoding="iso-8859-1"?>
<!-- Uploaded to: SVG Repo, www.svgrepo.com, Generator: SVG Repo Mixer Tools -->
<svg height="800px" width="800px" version="1.1" id="Layer_1" xmlns="http://www.w3.org/2000/svg" xmlns:xlink="http://www.w3.org/1999/xlink" 
	 viewBox="0 0 512 512" xml:space="preserve">
<path style="fill:#37CC8F;" d="M502.472,331.279c-7.553-43.645-37.966-103.665-49.634-125.585
	c-6.966,8.766-17.889,17.527-34.013,25.464c-0.009,0.004-0.017,0.009-0.026,0.013c-3.159,1.665-6.544,3.277-10.14,4.833
	c-0.052,0.022-0.106,0.046-0.158,0.068c-3.587,1.548-7.383,3.041-11.376,4.472c-0.067,0.025-0.136,0.048-0.203,0.073
	c-1.286,0.46-2.591,0.913-3.917,1.36c-0.043,0.014-0.084,0.029-0.127,0.043c-2.762,0.929-5.607,1.831-8.535,2.702
	c-0.045,0.014-0.091,0.027-0.136,0.04c-1.371,0.407-2.761,0.807-4.167,1.202c-0.148,0.042-0.294,0.082-0.443,0.124
	c-4.405,1.229-8.978,2.392-13.708,3.487c-0.223,0.052-0.449,0.104-0.674,0.155c-1.404,0.322-2.821,0.638-4.251,0.948
	c-0.168,0.036-0.335,0.074-0.503,0.11c-3.205,0.69-6.474,1.347-9.806,1.975c-0.261,0.049-0.525,0.097-0.787,0.145
	c-1.392,0.259-2.795,0.512-4.209,0.76c-0.322,0.057-0.642,0.113-0.964,0.169c-1.622,0.28-3.255,0.555-4.905,0.82
	c-0.028,0.004-0.055,0.009-0.081,0.014c-1.736,0.279-3.488,0.549-5.252,0.81c-0.257,0.038-0.516,0.075-0.774,0.112
	c-1.445,0.212-2.899,0.418-4.361,0.619c-0.429,0.059-0.859,0.117-1.29,0.174c-1.417,0.19-2.841,0.374-4.274,0.554
	c-0.334,0.042-0.665,0.084-1,0.126c-1.787,0.219-3.584,0.432-5.394,0.634c-0.109,0.012-0.22,0.024-0.329,0.035
	c-1.647,0.183-3.305,0.357-4.972,0.526c-0.483,0.049-0.969,0.096-1.453,0.143c-1.357,0.134-2.72,0.262-4.09,0.385
	c-0.495,0.045-0.988,0.09-1.485,0.134c-1.711,0.15-3.429,0.292-5.159,0.427c-0.098,0.008-0.196,0.016-0.294,0.024
	c-1.841,0.141-3.695,0.273-5.556,0.397c-0.489,0.032-0.982,0.062-1.471,0.093c-1.38,0.089-2.766,0.172-4.157,0.25
	c-0.583,0.033-1.165,0.065-1.75,0.096c-1.446,0.077-2.897,0.148-4.352,0.214c-0.443,0.02-0.882,0.043-1.326,0.062
	c-1.882,0.081-3.771,0.153-5.67,0.216c-0.389,0.013-0.781,0.022-1.17,0.034c-1.518,0.047-3.042,0.089-4.57,0.124
	c-0.613,0.014-1.226,0.027-1.841,0.038c-1.389,0.028-2.781,0.05-4.178,0.068c-0.573,0.008-1.144,0.016-1.718,0.021
	c-1.934,0.019-3.874,0.032-5.823,0.032c-1.948,0-3.888-0.013-5.823-0.032c-0.574-0.005-1.145-0.014-1.717-0.021
	c-1.398-0.018-2.791-0.041-4.18-0.068c-0.614-0.012-1.226-0.025-1.838-0.038c-1.531-0.035-3.057-0.077-4.579-0.124
	c-0.386-0.012-0.775-0.021-1.161-0.034c-1.9-0.063-3.792-0.136-5.676-0.216c-0.441-0.019-0.878-0.042-1.318-0.061
	c-1.456-0.066-2.908-0.137-4.354-0.214c-0.586-0.031-1.17-0.063-1.754-0.096c-1.391-0.078-2.777-0.163-4.158-0.25
	c-0.489-0.031-0.979-0.061-1.467-0.093c-1.862-0.124-3.715-0.254-5.556-0.397c-0.102-0.007-0.202-0.017-0.304-0.025
	c-1.727-0.134-3.444-0.277-5.153-0.426c-0.494-0.043-0.986-0.089-1.479-0.133c-1.373-0.124-2.739-0.252-4.099-0.386
	c-0.483-0.047-0.967-0.094-1.448-0.143c-1.661-0.168-3.313-0.341-4.954-0.524c-0.117-0.013-0.235-0.025-0.352-0.037
	c-1.81-0.202-3.607-0.414-5.392-0.634c-0.333-0.041-0.662-0.083-0.993-0.125c-1.436-0.18-2.865-0.365-4.283-0.555
	c-0.428-0.058-0.854-0.115-1.281-0.173c-1.464-0.201-2.918-0.406-4.363-0.619c-0.259-0.038-0.52-0.075-0.778-0.113
	c-1.763-0.262-3.515-0.531-5.249-0.81c-0.03-0.004-0.059-0.01-0.089-0.015c-1.649-0.265-3.28-0.54-4.901-0.82
	c-0.321-0.056-0.639-0.112-0.959-0.168c-1.414-0.248-2.817-0.501-4.21-0.76c-0.263-0.049-0.528-0.097-0.79-0.146
	c-3.333-0.627-6.603-1.285-9.807-1.975c-0.165-0.035-0.328-0.072-0.492-0.107c-1.433-0.31-2.852-0.628-4.258-0.949
	c-0.226-0.052-0.452-0.104-0.677-0.156c-4.729-1.095-9.302-2.259-13.708-3.487c-0.146-0.041-0.292-0.082-0.438-0.123
	c-1.406-0.395-2.796-0.794-4.166-1.202c-0.046-0.014-0.093-0.028-0.14-0.041c-2.929-0.871-5.774-1.773-8.537-2.702
	c-0.041-0.014-0.08-0.028-0.12-0.041c-1.328-0.448-2.636-0.902-3.924-1.362c-0.066-0.024-0.133-0.047-0.198-0.071
	c-3.994-1.432-7.791-2.924-11.379-4.474c-0.052-0.022-0.104-0.045-0.156-0.067c-3.597-1.557-6.982-3.169-10.143-4.835
	c-0.007-0.004-0.016-0.009-0.025-0.013c-16.124-7.937-27.048-16.699-34.014-25.465C47.46,227.675,16.898,287.993,9.46,331.673
	c-0.92,3.649-1.403,7.353-1.403,11.105c-0.068,0.91-0.035,1.795,0.08,2.66c3.357,56.33,113.053,101.559,247.883,101.559
	c135.212,0,245.135-45.488,247.897-102.04c0.047-0.504,0.06-1.016,0.046-1.533c0.003-0.216,0.019-0.43,0.019-0.646
	C503.981,338.89,503.458,335.055,502.472,331.279z"/>
<path style="fill:#2AA86F;" d="M502.472,331.279c-7.553-43.645-37.966-103.665-49.634-125.585
	c-4.046,5.091-9.437,10.178-16.395,15.105c13.994,27.758,35.611,74.633,41.815,110.481c0.986,3.777,1.509,7.612,1.509,11.499
	c0,0.216-0.016,0.431-0.019,0.646c0.014,0.519,0.001,1.031-0.046,1.533c-2.68,54.854-106.186,99.297-235.796,101.915
	c4.014,0.081,8.051,0.124,12.113,0.124c135.212,0,245.135-45.488,247.897-102.04c0.047-0.504,0.06-1.016,0.046-1.533
	c0.003-0.216,0.019-0.43,0.019-0.646C503.981,338.89,503.458,335.055,502.472,331.279z"/>
<g>
	<path style="fill:#FE9901;" d="M437.643,148.308c-5.391,0-10.55,0.986-15.315,2.777c-3.916-20.037-21.56-35.159-42.743-35.159
		c-5.272,0-10.327,0.938-15.005,2.654c-2.808-21.346-21.06-37.828-43.173-37.828c-9.845,0-18.925,3.27-26.219,8.776
		c-7.066-14.518-21.957-24.526-39.189-24.526s-32.123,10.008-39.189,24.526c-7.295-5.508-16.374-8.776-26.219-8.776
		c-22.113,0-40.364,16.481-43.173,37.828c-4.678-1.716-9.731-2.654-15.005-2.654c-21.183,0-38.826,15.122-42.743,35.159
		c-4.766-1.79-9.925-2.777-15.315-2.777c-24.058,0-50.048,48.949,18.818,82.849c34.025,17.941,94.224,29.865,162.824,29.865
		s128.799-11.924,162.824-29.865C487.691,197.257,461.701,148.308,437.643,148.308z"/>
	<path style="fill:#FE9901;" d="M64.747,150.835c0.236,0.084,0.477,0.161,0.712,0.25c0.045-0.231,0.102-0.458,0.15-0.686
		C65.32,150.537,65.034,150.684,64.747,150.835z"/>
</g>
<g>
	<path style="fill:#ED8803;" d="M340.367,118.579c4.678-1.716,9.731-2.654,15.004-2.654c3.067,0,6.055,0.326,8.942,0.929
		c-3.539-20.502-21.392-36.103-42.906-36.103c-4.201,0-8.26,0.6-12.103,1.71C325.686,87.198,338.093,101.292,340.367,118.579z"/>
	<path style="fill:#ED8803;" d="M398.114,151.085c4.766-1.79,9.924-2.777,15.315-2.777c2.947,0,5.921,0.739,8.749,2.089
		c-4.182-19.692-21.653-34.472-42.592-34.472c-4.202,0-8.262,0.604-12.106,1.715C383.012,122.129,394.974,135.024,398.114,151.085z"
		/>
	<path style="fill:#ED8803;" d="M437.643,148.308c-5.125,0-10.036,0.9-14.604,2.527c19.734,10.424,31.139,51-28.429,80.323
		c-32.007,16.877-87.179,28.427-150.716,29.738c4.004,0.082,8.04,0.127,12.107,0.127c68.601,0,128.799-11.924,162.824-29.865
		C487.691,197.257,461.701,148.308,437.643,148.308z"/>
</g>
<g>
	<path style="fill:#FFFFFF;" d="M256.144,357.288c-0.048,0-0.237,0-0.285,0c-21.731,0-43.366,45.518-29.385,52.044
		c6.105,2.85,12.482,2.473,17.728,1.144c3.862-0.978,7.831-1.461,11.799-1.449c3.968-0.012,7.937,0.47,11.799,1.449
		c5.247,1.329,11.623,1.705,17.728-1.144C299.509,402.806,277.874,357.288,256.144,357.288z"/>
	<path style="fill:#FFFFFF;" d="M210.591,325.424c4.275,9.496,17.937,17.887,27.433,13.613c9.496-4.275,11.23-19.598,6.955-29.094
		c-4.275-9.496-15.438-13.728-24.934-9.453C210.548,304.766,206.316,315.928,210.591,325.424z"/>
	<path style="fill:#FFFFFF;" d="M184.537,371.541c7.429,4.932,22.831,6.424,27.763-1.005c4.932-7.429-2.472-20.966-9.901-25.898
		s-17.45-2.908-22.382,4.521S177.107,366.608,184.537,371.541z"/>
	<path style="fill:#FFFFFF;" d="M301.41,325.424c-4.275,9.496-17.937,17.887-27.433,13.613c-9.496-4.275-11.23-19.598-6.955-29.094
		c4.275-9.496,15.438-13.728,24.934-9.453C301.453,304.766,305.685,315.928,301.41,325.424z"/>
	<path style="fill:#FFFFFF;" d="M327.465,371.541c-7.429,4.932-22.83,6.424-27.763-1.005s2.471-20.966,9.901-25.898
		c7.429-4.932,17.45-2.908,22.382,4.521S334.894,366.608,327.465,371.541z"/>
</g>
<path d="M235.873,150.479c0-18.606-15.137-33.743-33.743-33.743s-33.743,15.137-33.743,33.743c0,4.429,3.591,8.019,8.019,8.019
	s8.019-3.591,8.019-8.019c0-9.762,7.942-17.705,17.705-17.705c9.762,0,17.705,7.942,17.705,17.705c0,4.429,3.591,8.019,8.019,8.019
	C232.283,158.498,235.873,154.908,235.873,150.479z"/>
<path d="M292.167,150.479c0-9.762,7.942-17.705,17.706-17.705c9.762,0,17.705,7.942,17.705,17.705c0,4.429,3.589,8.019,8.019,8.019
	c4.43,0,8.019-3.591,8.019-8.019c0-18.606-15.136-33.743-33.743-33.743s-33.744,15.137-33.744,33.743
	c0,4.429,3.589,8.019,8.019,8.019C288.577,158.498,292.167,154.908,292.167,150.479z"/>
<path d="M230.277,213.621c4.429,0,8.019-3.591,8.019-8.019c0-9.762,7.942-17.705,17.705-17.705c9.763,0,17.706,7.942,17.706,17.705
	c0,4.429,3.589,8.019,8.019,8.019c4.43,0,8.019-3.591,8.019-8.019c0-18.606-15.137-33.743-33.744-33.743
	c-18.607,0-33.743,15.137-33.743,33.743C222.257,210.031,225.848,213.621,230.277,213.621z"/>
<path d="M133.975,171.859c-18.606,0-33.743,15.137-33.743,33.743c0,4.429,3.591,8.019,8.019,8.019c4.429,0,8.019-3.591,8.019-8.019
	c0-9.762,7.942-17.705,17.705-17.705s17.705,7.942,17.705,17.705c0,4.429,3.591,8.019,8.019,8.019s8.019-3.591,8.019-8.019
	C167.718,186.996,152.581,171.859,133.975,171.859z"/>
<path d="M360.321,205.602c0-9.762,7.942-17.705,17.705-17.705s17.705,7.942,17.705,17.705c0,4.429,3.589,8.019,8.019,8.019
	c4.43,0,8.019-3.591,8.019-8.019c0-18.606-15.136-33.743-33.743-33.743s-33.743,15.137-33.743,33.743
	c0,4.429,3.589,8.019,8.019,8.019C356.732,213.621,360.321,210.031,360.321,205.602z"/>
<path d="M255.858,349.269c-20.186,0-36.996,25.441-40.898,43.026c-3.722,16.775,4.438,22.585,8.121,24.303
	c6.831,3.188,14.784,3.755,23.089,1.652c3.153-0.799,6.412-1.203,9.686-1.203h0.29c3.274,0,6.533,0.404,9.685,1.203
	c3.285,0.832,6.535,1.253,9.662,1.253c0.001,0,0.001,0,0.001,0c4.78,0,9.297-0.977,13.427-2.905
	c3.681-1.718,11.844-7.526,8.122-24.303c-3.902-17.586-20.711-43.027-40.897-43.027h-0.288V349.269z M275.802,382.194
	c5.965,10.211,6.637,18.002,5.929,20.053c-1.903,0.82-3.949,1.219-6.238,1.219c-1.801,0-3.726-0.257-5.725-0.762
	c-4.439-1.124-9.022-1.694-13.623-1.694h-0.29c-4.601,0-9.184,0.57-13.623,1.694c-4.502,1.141-8.57,1-11.964-0.457
	c-0.708-2.051-0.035-9.842,5.93-20.053c5.901-10.1,13.801-16.885,19.658-16.885h0.286C262,365.307,269.901,372.094,275.802,382.194z
	"/>
<path d="M227.774,290.804c-3.815,0-7.523,0.799-11.022,2.374c-13.512,6.083-19.556,22.026-13.474,35.538
	c4.919,10.926,17.726,19.485,29.156,19.486h0.001c3.162,0,6.149-0.623,8.879-1.852c6.808-3.064,11.503-9.586,13.22-18.362
	c1.396-7.137,0.557-15.114-2.244-21.337C247.957,297.025,238.333,290.804,227.774,290.804z M234.731,331.725
	c-0.646,0.291-1.419,0.438-2.295,0.438l0,0c-5.148,0-12.211-4.875-14.532-10.031c-2.453-5.449-0.016-11.877,5.433-14.33
	c1.415-0.637,2.908-0.959,4.437-0.959c4.261,0,8.143,2.509,9.892,6.392C240.609,319.772,239.018,329.795,234.731,331.725z"/>
<path d="M173.335,344.722c-3.57,5.377-4.833,11.824-3.555,18.151c1.278,6.327,4.944,11.779,10.321,15.349
	c5.161,3.427,12.477,5.472,19.569,5.472h0.001c8.715,0,15.572-3.098,19.308-8.724c8.019-12.079-2.001-30.278-12.147-37.015
	c-3.975-2.639-8.592-4.034-13.351-4.034C185.357,333.922,177.825,337.959,173.335,344.722z M205.619,366.101
	c-0.4,0.602-2.367,1.557-5.947,1.557l0,0c-3.82,0-8.22-1.149-10.699-2.796c-1.808-1.201-3.042-3.035-3.472-5.162
	s-0.005-4.296,1.195-6.104c1.511-2.275,4.047-3.633,6.786-3.633c1.593,0,3.141,0.469,4.48,1.358
	C203.294,354.859,207.058,363.932,205.619,366.101z"/>
<path d="M295.249,293.178c-3.499-1.575-7.207-2.374-11.023-2.374c-10.559,0-20.183,6.22-24.517,15.847
	c-2.801,6.223-3.641,14.198-2.244,21.337c1.716,8.776,6.411,15.298,13.219,18.362c2.731,1.229,5.718,1.852,8.88,1.852
	c11.43,0,24.238-8.558,29.157-19.486C314.806,315.203,308.762,299.261,295.249,293.178z M294.098,322.133
	c-2.321,5.156-9.383,10.031-14.532,10.031c-0.877,0-1.65-0.148-2.295-0.438c-2.702-1.217-3.742-5.172-4.064-6.816
	c-0.771-3.941-0.338-8.414,1.129-11.673c1.748-3.882,5.632-6.392,9.892-6.392c1.531,0,3.023,0.323,4.437,0.959
	c2.64,1.188,4.658,3.333,5.684,6.039C295.374,316.549,295.286,319.493,294.098,322.133z"/>
<path d="M305.167,337.957c-5.04,3.347-9.711,9.13-12.494,15.472c-3.582,8.16-3.458,15.812,0.348,21.544
	c3.735,5.625,10.592,8.723,19.309,8.723c7.092,0,14.408-2.045,19.57-5.473c11.102-7.371,14.138-22.399,6.766-33.5
	c-4.491-6.763-12.023-10.8-20.148-10.8C313.76,333.922,309.143,335.317,305.167,337.957z M325.305,353.594
	c2.478,3.734,1.457,8.787-2.276,11.267c-2.48,1.647-6.88,2.796-10.699,2.796c-3.581,0-5.547-0.955-5.948-1.556
	c-0.408-0.616-0.505-2.851,0.977-6.227c1.762-4.017,4.624-7.191,6.678-8.554c1.338-0.889,2.887-1.359,4.48-1.359
	C321.256,349.96,323.794,351.318,325.305,353.594z"/>
<path d="M510.318,329.588c-7.33-41.829-34.434-97.21-48.06-123.225c0.367-0.549,0.738-1.097,1.083-1.651
	c8.996-14.439,8.619-27.203,6.717-35.368c-3.855-16.564-17.791-29.053-32.414-29.053c-3.316,0-6.595,0.313-9.814,0.936
	c-7.464-19.731-26.564-33.319-48.245-33.319c-3.046,0-6.059,0.264-9.022,0.787c-6.683-21.017-26.441-35.961-49.155-35.961
	c-8.307,0-16.308,1.941-23.542,5.669C288.277,65.01,272.905,56.984,256,56.984s-32.278,8.025-41.866,21.418
	c-7.233-3.727-15.235-5.669-23.542-5.669c-22.713,0-42.473,14.944-49.154,35.961c-2.963-0.523-5.976-0.787-9.022-0.787
	c-21.681,0-40.781,13.588-48.245,33.319c-3.218-0.622-6.498-0.936-9.812-0.936c-14.624,0-28.56,12.491-32.415,29.053
	c-1.901,8.165-2.279,20.929,6.718,35.368c0.345,0.554,0.715,1.1,1.081,1.649c-7.712,14.73-20.155,39.67-30.686,66.193
	c-1.634,4.117,0.377,8.777,4.494,10.412c0.971,0.385,1.972,0.568,2.958,0.568c3.19,0,6.207-1.916,7.456-5.062
	c9.039-22.767,19.55-44.39,27.085-59.073c0.901,0.831,1.833,1.653,2.792,2.467c0.032,0.028,0.064,0.056,0.096,0.083
	c0.017,0.015,0.035,0.03,0.053,0.044c0.679,0.573,1.373,1.142,2.081,1.706c0.033,0.027,0.065,0.052,0.098,0.079
	c0.051,0.041,0.104,0.081,0.155,0.121c1.707,1.352,3.494,2.677,5.363,3.978c0.15,0.104,0.296,0.209,0.447,0.312
	c0.045,0.031,0.091,0.061,0.136,0.092c0.64,0.439,1.29,0.876,1.949,1.309c0.177,0.118,0.354,0.236,0.535,0.354
	c0.138,0.09,0.28,0.177,0.419,0.267c0.605,0.39,1.217,0.778,1.838,1.164c0.159,0.1,0.314,0.199,0.481,0.302
	c0.335,0.205,0.681,0.414,1.038,0.627c0.473,0.284,0.946,0.568,1.426,0.849c0.129,0.077,0.256,0.153,0.388,0.23
	c0.367,0.213,0.747,0.426,1.125,0.639c0.522,0.296,1.039,0.593,1.571,0.887c0.092,0.051,0.181,0.103,0.274,0.154
	c0.602,0.331,1.228,0.664,1.909,1.024c0.339,0.18,0.671,0.361,1.015,0.541c0.06,0.031,0.117,0.063,0.177,0.094
	c0.96,0.499,1.942,0.997,2.94,1.489c0.061,0.03,0.12,0.062,0.181,0.092c0.006,0.003,0.014,0.007,0.021,0.011
	c0.902,0.475,1.885,0.974,2.985,1.518c26.862,13.331,66.304,22.719,111.163,26.848c0.047,0.004,0.093,0.01,0.14,0.014
	c10.86,1.168,21.682,1.974,32.167,2.396c22.469,0.907,45.22,0.233,67.625-2.002c0.936-0.078,1.84-0.164,2.762-0.245
	c1.847-0.164,3.689-0.333,5.522-0.514c1.81-0.179,3.605-0.364,5.379-0.558c0.742-0.081,1.483-0.164,2.223-0.248
	c2.523-0.288,5.03-0.586,7.514-0.909c0.791-0.103,1.538-0.322,2.232-0.631c0.028-0.013,0.058-0.021,0.086-0.034
	c0.15-0.068,0.291-0.149,0.434-0.227c0.087-0.046,0.177-0.087,0.262-0.137c0.119-0.07,0.229-0.149,0.343-0.223
	c0.103-0.067,0.21-0.129,0.308-0.201c0.11-0.08,0.212-0.169,0.318-0.254c0.095-0.077,0.195-0.149,0.287-0.229
	c0.089-0.078,0.169-0.166,0.254-0.248c0.099-0.096,0.203-0.188,0.298-0.29c0.075-0.079,0.14-0.167,0.212-0.249
	c0.096-0.112,0.197-0.221,0.287-0.338c0.068-0.09,0.128-0.185,0.194-0.278c0.082-0.118,0.17-0.232,0.246-0.354
	c0.076-0.121,0.141-0.248,0.211-0.373c0.056-0.099,0.117-0.196,0.168-0.298c0.096-0.191,0.18-0.388,0.26-0.587
	c0.016-0.041,0.037-0.079,0.052-0.12c0.068-0.177,0.124-0.359,0.18-0.542c0.02-0.066,0.047-0.13,0.065-0.198
	c0.279-1.004,0.366-2.08,0.222-3.178c-0.03-0.226-0.074-0.446-0.121-0.665c-0.01-0.047-0.015-0.095-0.026-0.141
	c-0.014-0.061-0.036-0.119-0.051-0.179c-0.932-3.597-4.241-6.101-7.971-5.996c-0.271,0.007-0.543,0.029-0.818,0.064
	c-0.028,0.003-0.057,0.006-0.086,0.011c-2.374,0.308-4.767,0.592-7.168,0.867c-0.74,0.084-1.482,0.167-2.227,0.249
	c-1.683,0.185-3.377,0.357-5.072,0.526c-1.892,0.186-3.812,0.366-5.758,0.536c-15.782,1.389-32.066,2.107-48.656,2.107
	c-16.464,0-32.56-0.691-47.978-2.012c-0.843-0.087-1.682-0.16-2.526-0.251c-0.042-0.004-0.083-0.009-0.125-0.013
	c-42.485-3.9-79.554-12.644-104.405-24.633l-0.433-0.205c-0.38-0.185-0.752-0.371-1.126-0.557c-0.822-0.412-1.644-0.823-2.441-1.242
	c-0.016-0.009-0.032-0.016-0.048-0.025c-0.034-0.018-0.068-0.035-0.104-0.052c-0.033-0.017-0.065-0.034-0.097-0.05
	c-0.088-0.043-0.171-0.088-0.259-0.13c-0.843-0.417-1.671-0.836-2.483-1.257c-0.702-0.365-1.391-0.735-2.075-1.106
	c-0.151-0.08-0.302-0.16-0.45-0.242c-25.172-13.78-37.772-31.561-33.888-48.249c2.394-10.285,10.581-16.651,16.795-16.651
	c4.293,0,8.497,0.761,12.495,2.264c2.209,0.831,4.67,0.646,6.73-0.505c2.06-1.149,3.509-3.148,3.962-5.464
	c3.247-16.617,17.913-28.678,34.872-28.678c4.212,0,8.33,0.728,12.241,2.163c2.288,0.839,4.832,0.594,6.914-0.667
	c2.084-1.261,3.481-3.4,3.8-5.815c2.314-17.59,17.456-30.854,35.222-30.854c7.789,0,15.185,2.475,21.387,7.158
	c1.914,1.445,4.372,1.956,6.704,1.397c2.331-0.559,4.29-2.133,5.339-4.289C230.03,80.694,242.283,73.024,256,73.024
	c13.716,0,25.97,7.67,31.977,20.015c1.049,2.156,3.008,3.73,5.339,4.289c2.333,0.558,4.789,0.047,6.704-1.397
	c6.204-4.682,13.6-7.158,21.388-7.158c17.765,0,32.908,13.264,35.222,30.854c0.318,2.414,1.715,4.554,3.799,5.815
	c2.084,1.262,4.628,1.507,6.915,0.668c3.91-1.435,8.03-2.163,12.241-2.163c16.958,0,31.625,12.061,34.872,28.678
	c0.452,2.316,1.901,4.314,3.96,5.464c2.06,1.151,4.523,1.334,6.73,0.505c3.998-1.502,8.202-2.264,12.496-2.264
	c6.213,0,14.4,6.366,16.794,16.652c4.148,17.814-10.49,36.872-39.154,50.983c-0.067,0.033-0.133,0.067-0.199,0.102
	c-4.765,2.513-10.117,4.908-15.97,7.17c-0.28,0.109-0.556,0.219-0.838,0.326c-13.449,5.126-29.536,9.544-47.493,13.006
	c-4.349,0.838-7.195,5.044-6.356,9.393c0.794,4.116,4.601,6.884,8.695,6.454c0.278-0.024,0.557-0.061,0.838-0.115
	c19.848-3.807,37.556-8.774,52.632-14.767c3.519-1.251,6.734-2.488,9.825-3.78c9.145-3.823,18.007-9.738,23.891-13.864
	c0.012-0.007,0.095-0.065,0.107-0.073c0.019-0.013,0.11-0.076,0.128-0.09l0.171-0.119c0.11-0.078,0.273-0.194,0.469-0.336
	c1.37-0.972,2.691-1.959,3.971-2.96c0.082-0.064,0.174-0.133,0.257-0.197c1.611-1.235,3.651-2.833,5.651-4.5
	c13.907,27.095,37.125,76.162,43.505,113.031c0.037,0.222,0.086,0.443,0.142,0.66c0.829,3.174,1.25,6.36,1.247,9.485
	c-0.007,0.172-0.014,0.344-0.016,0.516c-0.002,0.109-0.001,0.218,0.002,0.326c0.005,0.222,0.001,0.417-0.015,0.578
	c-0.011,0.118-0.019,0.236-0.025,0.354c-1.16,23.751-26.43,47.517-69.328,65.204c-45.682,18.835-106.255,29.207-170.56,29.207
	c-64.111,0-124.555-10.318-170.198-29.055c-42.87-17.599-68.268-41.277-69.679-64.962c-0.012-0.197-0.031-0.392-0.057-0.588
	c-0.046-0.343-0.057-0.668-0.032-0.994c0.015-0.2,0.022-0.401,0.022-0.601c0-3.015,0.39-6.093,1.159-9.146
	c0.05-0.202,0.094-0.406,0.129-0.613c1.5-8.806,4.113-18.977,7.769-30.23c1.368-4.212-0.938-8.736-5.149-10.104
	c-4.214-1.369-8.736,0.937-10.104,5.15C6.023,309.7,3.24,320.527,1.603,330.025c-1.018,4.141-1.545,8.336-1.568,12.478
	c-0.072,1.22-0.034,2.457,0.111,3.685c1.972,30.413,30.219,58.308,79.582,78.571c47.53,19.512,110.136,30.256,176.288,30.256
	c66.354,0,129.097-10.803,176.673-30.418c49.509-20.412,77.636-48.496,79.226-79.089c0.055-0.655,0.076-1.339,0.066-2.038
	c0.011-0.231,0.018-0.462,0.018-0.694C512.001,338.41,511.435,333.974,510.318,329.588z"/>
</svg>

